# xmcd
#
# Track frame offsets:
#	150
#	17250
#	37125
#	53525
#	64408
#	79839
#	93490
#	103091
#	120236
#
# Disc length: 1804 seconds
#
# Revision: 1
# Processed by: cddbd v1.5.1PL0 Copyright (c) Steve Scherf et al.
# Submitted via: audiograbber 1.81.03
#
DISCID=6a070a09
DTITLE=Tom Wilson and Bob Lanois - The Shack Recordings Volume One
DYEAR=2005
DGENRE=Blues
TTITLE0=That's How I Walk
TTITLE1=Fennell Square
TTITLE2=Let Your Old Star In
TTITLE3=Car Dream
TTITLE4=Going By
TTITLE5=Around The Dial
TTITLE6=Kids
TTITLE7=Cold
TTITLE8=Girl From The North Country
EXTD=
EXTT0=
EXTT1=
EXTT2=
EXTT3=
EXTT4=
EXTT5=
EXTT6=
EXTT7=
EXTT8=
PLAYORDER=
